<svg xmlns="http://www.w3.org/2000/svg" width="100" height="100" viewBox="0 0 100 100">
  <rect width="100" height="100" rx="22" fill="#1F3A2E"/><rect x="9" y="9" width="82" height="82" rx="12.100000000000001" fill="none" stroke="#FBFAF7" stroke-opacity="0.26" stroke-width="1.0999999999999999"/>
  <path d="M50.588 23.633L68.508 69.831Q69.610 72.621 71.006 73.540Q72.401 74.458 73.576 74.531L73.576 76Q72.107 75.853 69.977 75.816Q67.847 75.780 65.718 75.780Q62.853 75.780 60.356 75.816Q57.859 75.853 56.316 76L56.316 74.531Q60.062 74.384 61.090 73.246Q62.119 72.107 60.650 68.362L46.989 31.859L48.164 30.904L35.384 64.102Q34.209 67.040 33.989 69.059Q33.768 71.079 34.393 72.254Q35.017 73.429 36.523 73.944Q38.028 74.458 40.305 74.531L40.305 76Q38.249 75.853 36.008 75.816Q33.768 75.780 31.859 75.780Q30.023 75.780 28.737 75.816Q27.452 75.853 26.350 76L26.350 74.531Q27.819 74.164 29.362 72.805Q30.904 71.446 32.153 68.141L49.412 23.633Q49.706 23.633 50 23.633Q50.294 23.633 50.588 23.633M38.395 54.847L59.548 54.847L59.548 56.316L37.661 56.316" fill="#FBFAF7"/></svg>